<mxfile host="app.diagrams.net" modified="2025-10-18T00:00:00.000Z" agent="GitHub Copilot" version="24.0.0" etag="auth-v1" type="device">
  <diagram name="인증 &amp; 권한 관리" id="auth-diagram">
    <mxGraphModel dx="1434" dy="844" grid="1" gridSize="10" guides="1" tooltips="1" connect="1" arrows="1" fold="1" page="1" pageScale="1" pageWidth="1169" pageHeight="827" background="#FFFFFF" math="0" shadow="0">
      <root>
        <mxCell id="0" />
        <mxCell id="1" parent="0" />
        
        <!-- Title -->
        <mxCell id="title" value="🔐 인증 &amp; 권한 관리 API" style="text;html=1;strokeColor=none;fillColor=none;align=center;verticalAlign=middle;whiteSpace=wrap;rounded=0;fontSize=24;fontStyle=1;" vertex="1" parent="1">
          <mxGeometry x="340" y="40" width="480" height="40" as="geometry" />
        </mxCell>

        <!-- User Authentication Section -->
        <mxCell id="user-auth-container" value="" style="rounded=1;whiteSpace=wrap;html=1;fillColor=#E1F5FF;strokeColor=#0288D1;strokeWidth=3;arcSize=5;" vertex="1" parent="1">
          <mxGeometry x="80" y="120" width="420" height="280" as="geometry" />
        </mxCell>
        
        <mxCell id="user-auth-title" value="👤 사용자 인증" style="text;html=1;strokeColor=none;fillColor=none;align=center;verticalAlign=middle;whiteSpace=wrap;rounded=0;fontSize=18;fontStyle=1;fontColor=#01579B;" vertex="1" parent="1">
          <mxGeometry x="190" y="135" width="200" height="30" as="geometry" />
        </mxCell>

        <!-- User Login -->
        <mxCell id="user-login" value="POST /api/auth/login" style="rounded=1;whiteSpace=wrap;html=1;fillColor=#4CAF50;strokeColor=#2E7D32;strokeWidth=2;fontColor=#FFFFFF;fontSize=14;fontStyle=1;" vertex="1" parent="1">
          <mxGeometry x="120" y="180" width="340" height="40" as="geometry" />
        </mxCell>
        <mxCell id="user-login-desc" value="사용자 로그인" style="text;html=1;strokeColor=none;fillColor=none;align=left;verticalAlign=middle;whiteSpace=wrap;rounded=0;fontSize=12;fontColor=#37474F;" vertex="1" parent="1">
          <mxGeometry x="130" y="195" width="200" height="20" as="geometry" />
        </mxCell>

        <!-- Token Refresh -->
        <mxCell id="user-refresh" value="POST /api/auth/refresh" style="rounded=1;whiteSpace=wrap;html=1;fillColor=#2196F3;strokeColor=#0D47A1;strokeWidth=2;fontColor=#FFFFFF;fontSize=14;fontStyle=1;" vertex="1" parent="1">
          <mxGeometry x="120" y="235" width="340" height="40" as="geometry" />
        </mxCell>
        <mxCell id="user-refresh-desc" value="토큰 갱신" style="text;html=1;strokeColor=none;fillColor=none;align=left;verticalAlign=middle;whiteSpace=wrap;rounded=0;fontSize=12;fontColor=#37474F;" vertex="1" parent="1">
          <mxGeometry x="130" y="250" width="200" height="20" as="geometry" />
        </mxCell>

        <!-- Token Validate -->
        <mxCell id="user-validate" value="GET /api/auth/validate" style="rounded=1;whiteSpace=wrap;html=1;fillColor=#FF9800;strokeColor=#E65100;strokeWidth=2;fontColor=#FFFFFF;fontSize=14;fontStyle=1;" vertex="1" parent="1">
          <mxGeometry x="120" y="290" width="340" height="40" as="geometry" />
        </mxCell>
        <mxCell id="user-validate-desc" value="토큰 검증" style="text;html=1;strokeColor=none;fillColor=none;align=left;verticalAlign=middle;whiteSpace=wrap;rounded=0;fontSize=12;fontColor=#37474F;" vertex="1" parent="1">
          <mxGeometry x="130" y="305" width="200" height="20" as="geometry" />
        </mxCell>

        <!-- Logout -->
        <mxCell id="user-logout" value="POST /api/auth/logout" style="rounded=1;whiteSpace=wrap;html=1;fillColor=#F44336;strokeColor=#B71C1C;strokeWidth=2;fontColor=#FFFFFF;fontSize=14;fontStyle=1;" vertex="1" parent="1">
          <mxGeometry x="120" y="345" width="340" height="40" as="geometry" />
        </mxCell>
        <mxCell id="user-logout-desc" value="로그아웃" style="text;html=1;strokeColor=none;fillColor=none;align=left;verticalAlign=middle;whiteSpace=wrap;rounded=0;fontSize=12;fontColor=#37474F;" vertex="1" parent="1">
          <mxGeometry x="130" y="360" width="200" height="20" as="geometry" />
        </mxCell>

        <!-- Admin Authentication Section -->
        <mxCell id="admin-auth-container" value="" style="rounded=1;whiteSpace=wrap;html=1;fillColor=#FFF3E0;strokeColor=#EF6C00;strokeWidth=3;arcSize=5;" vertex="1" parent="1">
          <mxGeometry x="570" y="120" width="500" height="280" as="geometry" />
        </mxCell>
        
        <mxCell id="admin-auth-title" value="👨‍💼 관리자 인증" style="text;html=1;strokeColor=none;fillColor=none;align=center;verticalAlign=middle;whiteSpace=wrap;rounded=0;fontSize=18;fontStyle=1;fontColor=#E65100;" vertex="1" parent="1">
          <mxGeometry x="720" y="135" width="200" height="30" as="geometry" />
        </mxCell>

        <!-- Admin Login -->
        <mxCell id="admin-login" value="POST /api/admin/login" style="rounded=1;whiteSpace=wrap;html=1;fillColor=#9C27B0;strokeColor=#4A148C;strokeWidth=2;fontColor=#FFFFFF;fontSize=14;fontStyle=1;" vertex="1" parent="1">
          <mxGeometry x="610" y="180" width="420" height="40" as="geometry" />
        </mxCell>
        <mxCell id="admin-login-desc" value="관리자 로그인" style="text;html=1;strokeColor=none;fillColor=none;align=left;verticalAlign=middle;whiteSpace=wrap;rounded=0;fontSize=12;fontColor=#37474F;" vertex="1" parent="1">
          <mxGeometry x="620" y="195" width="200" height="20" as="geometry" />
        </mxCell>

        <!-- Email Auth Request -->
        <mxCell id="admin-email-request" value="POST /api/admin/email-auth/request" style="rounded=1;whiteSpace=wrap;html=1;fillColor=#00BCD4;strokeColor=#006064;strokeWidth=2;fontColor=#FFFFFF;fontSize=14;fontStyle=1;" vertex="1" parent="1">
          <mxGeometry x="610" y="235" width="420" height="40" as="geometry" />
        </mxCell>
        <mxCell id="admin-email-request-desc" value="관리자 이메일 인증 요청" style="text;html=1;strokeColor=none;fillColor=none;align=left;verticalAlign=middle;whiteSpace=wrap;rounded=0;fontSize=12;fontColor=#37474F;" vertex="1" parent="1">
          <mxGeometry x="620" y="250" width="250" height="20" as="geometry" />
        </mxCell>

        <!-- Email Auth Verify -->
        <mxCell id="admin-email-verify" value="POST /api/admin/email-auth/verify" style="rounded=1;whiteSpace=wrap;html=1;fillColor=#8BC34A;strokeColor=#33691E;strokeWidth=2;fontColor=#FFFFFF;fontSize=14;fontStyle=1;" vertex="1" parent="1">
          <mxGeometry x="610" y="290" width="420" height="40" as="geometry" />
        </mxCell>
        <mxCell id="admin-email-verify-desc" value="관리자 이메일 인증 확인" style="text;html=1;strokeColor=none;fillColor=none;align=left;verticalAlign=middle;whiteSpace=wrap;rounded=0;fontSize=12;fontColor=#37474F;" vertex="1" parent="1">
          <mxGeometry x="620" y="305" width="250" height="20" as="geometry" />
        </mxCell>

        <!-- Flow Arrows -->
        <mxCell id="arrow1" value="" style="endArrow=classic;html=1;strokeColor=#0288D1;strokeWidth=3;exitX=0.5;exitY=1;exitDx=0;exitDy=0;entryX=0.5;entryY=0;entryDx=0;entryDy=0;" edge="1" parent="1" source="user-login" target="user-refresh">
          <mxGeometry width="50" height="50" relative="1" as="geometry">
            <mxPoint x="290" y="220" as="sourcePoint" />
            <mxPoint x="290" y="235" as="targetPoint" />
          </mxGeometry>
        </mxCell>
        
        <mxCell id="arrow2" value="" style="endArrow=classic;html=1;strokeColor=#0288D1;strokeWidth=3;exitX=0.5;exitY=1;exitDx=0;exitDy=0;entryX=0.5;entryY=0;entryDx=0;entryDy=0;" edge="1" parent="1" source="user-refresh" target="user-validate">
          <mxGeometry width="50" height="50" relative="1" as="geometry">
            <mxPoint x="290" y="275" as="sourcePoint" />
            <mxPoint x="290" y="290" as="targetPoint" />
          </mxGeometry>
        </mxCell>
        
        <mxCell id="arrow3" value="" style="endArrow=classic;html=1;strokeColor=#0288D1;strokeWidth=3;exitX=0.5;exitY=1;exitDx=0;exitDy=0;entryX=0.5;entryY=0;entryDx=0;entryDy=0;" edge="1" parent="1" source="user-validate" target="user-logout">
          <mxGeometry width="50" height="50" relative="1" as="geometry">
            <mxPoint x="290" y="330" as="sourcePoint" />
            <mxPoint x="290" y="345" as="targetPoint" />
          </mxGeometry>
        </mxCell>

        <mxCell id="arrow4" value="" style="endArrow=classic;html=1;strokeColor=#EF6C00;strokeWidth=3;exitX=0.5;exitY=1;exitDx=0;exitDy=0;entryX=0.5;entryY=0;entryDx=0;entryDy=0;" edge="1" parent="1" source="admin-login" target="admin-email-request">
          <mxGeometry width="50" height="50" relative="1" as="geometry">
            <mxPoint x="820" y="220" as="sourcePoint" />
            <mxPoint x="820" y="235" as="targetPoint" />
          </mxGeometry>
        </mxCell>
        
        <mxCell id="arrow5" value="" style="endArrow=classic;html=1;strokeColor=#EF6C00;strokeWidth=3;exitX=0.5;exitY=1;exitDx=0;exitDy=0;entryX=0.5;entryY=0;entryDx=0;entryDy=0;" edge="1" parent="1" source="admin-email-request" target="admin-email-verify">
          <mxGeometry width="50" height="50" relative="1" as="geometry">
            <mxPoint x="820" y="275" as="sourcePoint" />
            <mxPoint x="820" y="290" as="targetPoint" />
          </mxGeometry>
        </mxCell>

        <!-- Priority Badge -->
        <mxCell id="priority-badge" value="🔥 최우선 (Core Business)" style="rounded=1;whiteSpace=wrap;html=1;fillColor=#FF5252;strokeColor=#C62828;strokeWidth=3;fontColor=#FFFFFF;fontSize=16;fontStyle=1;" vertex="1" parent="1">
          <mxGeometry x="400" y="450" width="360" height="50" as="geometry" />
        </mxCell>

        <!-- Description Box -->
        <mxCell id="desc-container" value="" style="rounded=1;whiteSpace=wrap;html=1;fillColor=#F5F5F5;strokeColor=#9E9E9E;strokeWidth=2;arcSize=5;" vertex="1" parent="1">
          <mxGeometry x="80" y="540" width="990" height="120" as="geometry" />
        </mxCell>
        
        <mxCell id="desc-title" value="💡 시스템 설명" style="text;html=1;strokeColor=none;fillColor=none;align=left;verticalAlign=middle;whiteSpace=wrap;rounded=0;fontSize=16;fontStyle=1;fontColor=#424242;" vertex="1" parent="1">
          <mxGeometry x="110" y="555" width="200" height="25" as="geometry" />
        </mxCell>
        
        <mxCell id="desc-text1" value="• 사용자 인증: 일반 사용자(학생/교수)를 위한 로그인, 토큰 관리, 로그아웃 기능" style="text;html=1;strokeColor=none;fillColor=none;align=left;verticalAlign=middle;whiteSpace=wrap;rounded=0;fontSize=13;fontColor=#616161;" vertex="1" parent="1">
          <mxGeometry x="110" y="590" width="900" height="20" as="geometry" />
        </mxCell>
        
        <mxCell id="desc-text2" value="• 관리자 인증: 관리자 전용 로그인과 이메일 기반 2단계 인증 시스템" style="text;html=1;strokeColor=none;fillColor=none;align=left;verticalAlign=middle;whiteSpace=wrap;rounded=0;fontSize=13;fontColor=#616161;" vertex="1" parent="1">
          <mxGeometry x="110" y="615" width="900" height="20" as="geometry" />
        </mxCell>
        
        <mxCell id="desc-text3" value="• 모든 API 요청의 기반이 되는 핵심 인증 시스템으로, JWT 토큰 기반 인증 방식 사용" style="text;html=1;strokeColor=none;fillColor=none;align=left;verticalAlign=middle;whiteSpace=wrap;rounded=0;fontSize=13;fontColor=#616161;" vertex="1" parent="1">
          <mxGeometry x="110" y="640" width="900" height="20" as="geometry" />
        </mxCell>

        <!-- Legend -->
        <mxCell id="legend-container" value="" style="rounded=1;whiteSpace=wrap;html=1;fillColor=#FAFAFA;strokeColor=#757575;strokeWidth=2;arcSize=5;" vertex="1" parent="1">
          <mxGeometry x="80" y="700" width="990" height="80" as="geometry" />
        </mxCell>
        
        <mxCell id="legend-title" value="📊 색상 범례" style="text;html=1;strokeColor=none;fillColor=none;align=left;verticalAlign=middle;whiteSpace=wrap;rounded=0;fontSize=14;fontStyle=1;fontColor=#424242;" vertex="1" parent="1">
          <mxGeometry x="110" y="710" width="150" height="25" as="geometry" />
        </mxCell>
        
        <mxCell id="legend-user" value="사용자 인증" style="rounded=1;whiteSpace=wrap;html=1;fillColor=#E1F5FF;strokeColor=#0288D1;strokeWidth=2;fontColor=#01579B;fontSize=11;fontStyle=1;" vertex="1" parent="1">
          <mxGeometry x="110" y="745" width="140" height="25" as="geometry" />
        </mxCell>
        
        <mxCell id="legend-admin" value="관리자 인증" style="rounded=1;whiteSpace=wrap;html=1;fillColor=#FFF3E0;strokeColor=#EF6C00;strokeWidth=2;fontColor=#E65100;fontSize=11;fontStyle=1;" vertex="1" parent="1">
          <mxGeometry x="270" y="745" width="140" height="25" as="geometry" />
        </mxCell>
        
        <mxCell id="legend-login" value="로그인 API" style="rounded=1;whiteSpace=wrap;html=1;fillColor=#4CAF50;strokeColor=#2E7D32;strokeWidth=2;fontColor=#FFFFFF;fontSize=11;fontStyle=1;" vertex="1" parent="1">
          <mxGeometry x="430" y="745" width="120" height="25" as="geometry" />
        </mxCell>
        
        <mxCell id="legend-token" value="토큰 관리" style="rounded=1;whiteSpace=wrap;html=1;fillColor=#2196F3;strokeColor=#0D47A1;strokeWidth=2;fontColor=#FFFFFF;fontSize=11;fontStyle=1;" vertex="1" parent="1">
          <mxGeometry x="570" y="745" width="120" height="25" as="geometry" />
        </mxCell>
        
        <mxCell id="legend-validate" value="검증 API" style="rounded=1;whiteSpace=wrap;html=1;fillColor=#FF9800;strokeColor=#E65100;strokeWidth=2;fontColor=#FFFFFF;fontSize=11;fontStyle=1;" vertex="1" parent="1">
          <mxGeometry x="710" y="745" width="120" height="25" as="geometry" />
        </mxCell>
        
        <mxCell id="legend-email" value="이메일 인증" style="rounded=1;whiteSpace=wrap;html=1;fillColor=#00BCD4;strokeColor=#006064;strokeWidth=2;fontColor=#FFFFFF;fontSize=11;fontStyle=1;" vertex="1" parent="1">
          <mxGeometry x="850" y="745" width="120" height="25" as="geometry" />
        </mxCell>

      </root>
    </mxGraphModel>
  </diagram>
</mxfile>
